<svg width="25" height="24" viewBox="0 0 25 24" fill="none" xmlns="http://www.w3.org/2000/svg">
<path d="M21.3335 4.5H3.3335C2.93567 4.5 2.55414 4.65804 2.27284 4.93934C1.99153 5.22064 1.8335 5.60218 1.8335 6V18C1.8335 18.3978 1.99153 18.7794 2.27284 19.0607C2.55414 19.342 2.93567 19.5 3.3335 19.5H21.3335C21.7313 19.5 22.1129 19.342 22.3942 19.0607C22.6755 18.7794 22.8335 18.3978 22.8335 18V6C22.8335 5.60218 22.6755 5.22064 22.3942 4.93934C22.1129 4.65804 21.7313 4.5 21.3335 4.5ZM19.6835 6L12.3335 11.085L4.9835 6H19.6835ZM3.3335 18V6.6825L11.906 12.615C12.0315 12.7021 12.1807 12.7488 12.3335 12.7488C12.4863 12.7488 12.6354 12.7021 12.761 12.615L21.3335 6.6825V18H3.3335Z" fill="white"/>
</svg>
