<svg width="20" height="20" viewBox="0 0 20 20" fill="none" xmlns="http://www.w3.org/2000/svg">
<path d="M11.1778 18.8889H3.27777C3.06859 18.8956 2.8602 18.8602 2.66499 18.7848C2.46978 18.7093 2.29173 18.5954 2.14143 18.4498C1.99113 18.3041 1.87165 18.1298 1.79009 17.937C1.70852 17.7443 1.66655 17.5371 1.66666 17.3278V2.70005C1.68258 2.27365 1.867 1.87098 2.17946 1.58039C2.49192 1.2898 2.90689 1.13504 3.33332 1.15005H11.2333C11.4379 1.14546 11.6412 1.18247 11.831 1.25881C12.0209 1.33515 12.1932 1.44925 12.3376 1.59418C12.482 1.73911 12.5955 1.91186 12.6712 2.10195C12.7468 2.29204 12.7831 2.49552 12.7778 2.70005V17.3278C12.7771 17.5359 12.7349 17.7418 12.6538 17.9334C12.5727 18.1251 12.4542 18.2986 12.3052 18.444C12.1562 18.5893 11.9798 18.7035 11.7863 18.7799C11.5927 18.8563 11.3858 18.8934 11.1778 18.8889ZM3.27777 2.22227C3.21337 2.22004 3.14918 2.23072 3.08897 2.25366C3.02876 2.2766 2.97374 2.31135 2.92716 2.35587C2.88057 2.40038 2.84336 2.45376 2.8177 2.51287C2.79205 2.57198 2.77847 2.63562 2.77777 2.70005V17.3278C2.77777 17.456 2.82869 17.579 2.91933 17.6696C3.00998 17.7602 3.13291 17.8112 3.2611 17.8112H11.1778C11.3107 17.8129 11.4394 17.7639 11.5375 17.6741C11.6355 17.5843 11.6957 17.4604 11.7055 17.3278V2.70005C11.6943 2.56842 11.6336 2.44594 11.5357 2.35729C11.4378 2.26863 11.3099 2.22038 11.1778 2.22227H3.27777Z" fill="#007CC7"/>
<path d="M16.4056 18.8889C16.1488 18.8911 15.8942 18.8424 15.6563 18.7457C15.4185 18.649 15.2022 18.5061 15.0198 18.3253C14.8375 18.1446 14.6928 17.9295 14.594 17.6924C14.4953 17.4554 14.4444 17.2012 14.4444 16.9445V12.7778C14.4444 12.4831 14.3274 12.2005 14.119 11.9921C13.9106 11.7838 13.628 11.6667 13.3333 11.6667H12.5389C12.3916 11.6667 12.2502 11.6082 12.1461 11.504C12.0419 11.3998 11.9833 11.2585 11.9833 11.1111C11.9833 10.9638 12.0419 10.8225 12.1461 10.7183C12.2502 10.6141 12.3916 10.5556 12.5389 10.5556H13.3333C13.9227 10.5556 14.4879 10.7897 14.9047 11.2065C15.3214 11.6232 15.5556 12.1884 15.5556 12.7778V16.9445C15.5556 17.1655 15.6434 17.3774 15.7996 17.5337C15.9559 17.69 16.1679 17.7778 16.3889 17.7778C16.6099 17.7778 16.8219 17.69 16.9781 17.5337C17.1344 17.3774 17.2222 17.1655 17.2222 16.9445V9.61114L15.4833 5.72225C15.3794 5.50554 15.2163 5.32269 15.0128 5.19487C14.8092 5.06705 14.5737 4.9995 14.3333 5.00003H13.9278C13.7804 5.00003 13.6391 4.9415 13.5349 4.83731C13.4308 4.73312 13.3722 4.59181 13.3722 4.44447C13.3722 4.29713 13.4308 4.15582 13.5349 4.05163C13.6391 3.94745 13.7804 3.88892 13.9278 3.88892H14.3333C14.7953 3.88868 15.2474 4.02237 15.6349 4.27381C16.0224 4.52524 16.3287 4.88364 16.5167 5.30558L18.3 9.28336C18.3326 9.35489 18.3496 9.43253 18.35 9.51114V16.9445C18.35 17.4602 18.1451 17.9547 17.7805 18.3194C17.4158 18.6841 16.9213 18.8889 16.4056 18.8889Z" fill="#007CC7"/>
<path d="M10 5.00003H4.44444C4.2971 5.00003 4.15579 4.9415 4.0516 4.83731C3.94742 4.73312 3.88889 4.59181 3.88889 4.44447C3.88889 4.29713 3.94742 4.15582 4.0516 4.05163C4.15579 3.94745 4.2971 3.88892 4.44444 3.88892H10C10.1473 3.88892 10.2886 3.94745 10.3928 4.05163C10.497 4.15582 10.5556 4.29713 10.5556 4.44447C10.5556 4.59181 10.497 4.73312 10.3928 4.83731C10.2886 4.9415 10.1473 5.00003 10 5.00003Z" fill="#007CC7"/>
<path d="M10 7.2222H4.44444C4.2971 7.2222 4.15579 7.16366 4.0516 7.05948C3.94742 6.95529 3.88889 6.81398 3.88889 6.66664C3.88889 6.5193 3.94742 6.37799 4.0516 6.2738C4.15579 6.16962 4.2971 6.11108 4.44444 6.11108H10C10.1473 6.11108 10.2886 6.16962 10.3928 6.2738C10.497 6.37799 10.5556 6.5193 10.5556 6.66664C10.5556 6.81398 10.497 6.95529 10.3928 7.05948C10.2886 7.16366 10.1473 7.2222 10 7.2222Z" fill="#007CC7"/>
<path d="M13.8889 6.71117C13.7416 6.71117 13.6002 6.65264 13.4961 6.54845C13.3919 6.44426 13.3333 6.30296 13.3333 6.15561V2.82228C13.3333 2.67494 13.3919 2.53363 13.4961 2.42944C13.6002 2.32526 13.7416 2.26672 13.8889 2.26672C14.0362 2.26672 14.1775 2.32526 14.2817 2.42944C14.3859 2.53363 14.4445 2.67494 14.4445 2.82228V6.15561C14.4445 6.30296 14.3859 6.44426 14.2817 6.54845C14.1775 6.65264 14.0362 6.71117 13.8889 6.71117Z" fill="#007CC7"/>
</svg>
