<svg width="20" height="20" viewBox="0 0 20 20" fill="none" xmlns="http://www.w3.org/2000/svg">
<path d="M18.1945 2.48096H15.2415C15.1823 2.48096 15.1256 2.50445 15.0838 2.54627C15.042 2.58809 15.0185 2.64481 15.0185 2.70396C15.0185 2.74196 15.0305 2.77596 15.047 2.80696V4.50596C15.0471 4.56822 15.0348 4.62989 15.011 4.68743C14.9872 4.74497 14.9523 4.79724 14.9083 4.84127C14.8643 4.8853 14.812 4.92021 14.7545 4.94401C14.6969 4.96781 14.6353 4.98002 14.573 4.97996H13.654C13.5962 4.97996 13.539 4.96858 13.4856 4.94646C13.4322 4.92435 13.3837 4.89194 13.3429 4.85108C13.302 4.81023 13.2696 4.76172 13.2475 4.70834C13.2254 4.65495 13.214 4.59774 13.214 4.53996V2.83446C13.2435 2.79725 13.26 2.75142 13.261 2.70396C13.2611 2.67465 13.2553 2.64563 13.2442 2.61854C13.233 2.59146 13.2165 2.56685 13.1958 2.54613C13.1751 2.52541 13.1505 2.50898 13.1234 2.4978C13.0963 2.48661 13.0673 2.48089 13.038 2.48096H7.08549C7.02635 2.48096 6.96963 2.50445 6.92781 2.54627C6.88599 2.58809 6.86249 2.64481 6.86249 2.70396C6.86249 2.73846 6.87199 2.76996 6.88599 2.79946V4.51796C6.88599 4.57869 6.87403 4.63884 6.85079 4.69495C6.82754 4.75106 6.79348 4.80205 6.75053 4.84499C6.70758 4.88794 6.6566 4.92201 6.60048 4.94525C6.54437 4.96849 6.48423 4.98046 6.42349 4.98046H5.60749C5.48364 4.98046 5.36485 4.93126 5.27727 4.84368C5.18969 4.7561 5.14049 4.63731 5.14049 4.51346V2.81196C5.16035 2.77937 5.17122 2.74211 5.17199 2.70396C5.17206 2.67465 5.16633 2.64563 5.15515 2.61854C5.14397 2.59146 5.12754 2.56685 5.10682 2.54613C5.0861 2.52541 5.06149 2.50898 5.03441 2.4978C5.00732 2.48661 4.97829 2.48089 4.94899 2.48096H1.83749C1.70607 2.48109 1.58006 2.53332 1.48709 2.6262C1.39411 2.71908 1.34176 2.84504 1.34149 2.97646V17.7435C1.34149 18.0175 1.56399 18.24 1.83749 18.24H18.1945C18.326 18.2397 18.452 18.1873 18.5449 18.0942C18.6378 18.0011 18.69 17.875 18.69 17.7435V2.97646C18.6897 2.84512 18.6374 2.71925 18.5446 2.62638C18.4517 2.53351 18.3258 2.48122 18.1945 2.48096V2.48096ZM18.1945 17.794H1.83749C1.83088 17.794 1.82434 17.7926 1.81824 17.7901C1.81214 17.7876 1.80661 17.7838 1.80196 17.7791C1.79731 17.7744 1.79364 17.7689 1.79115 17.7627C1.78867 17.7566 1.78743 17.7501 1.78749 17.7435V6.60696H18.244V17.743C18.2441 17.7496 18.2429 17.7561 18.2405 17.7623C18.2381 17.7684 18.2345 17.774 18.2299 17.7788C18.2253 17.7835 18.2198 17.7873 18.2137 17.7899C18.2076 17.7925 18.2011 17.7939 18.1945 17.794V17.794Z" fill="#007CC7"/>
<path d="M6.07349 4.47198C6.19649 4.47198 6.29649 4.37198 6.29649 4.24898V1.24998C6.29649 1.22069 6.29073 1.19169 6.27952 1.16464C6.26831 1.13758 6.25189 1.113 6.23118 1.09229C6.21047 1.07159 6.18589 1.05516 6.15883 1.04395C6.13178 1.03275 6.10278 1.02698 6.07349 1.02698C6.04421 1.02698 6.01521 1.03275 5.98816 1.04395C5.9611 1.05516 5.93652 1.07159 5.91581 1.09229C5.8951 1.113 5.87868 1.13758 5.86747 1.16464C5.85626 1.19169 5.85049 1.22069 5.85049 1.24998V4.24948C5.85049 4.37248 5.95049 4.47198 6.07349 4.47198V4.47198Z" fill="#007CC7"/>
<path d="M14.1505 4.47198C14.2735 4.47198 14.3735 4.37198 14.3735 4.24898V1.24998C14.3735 1.19083 14.35 1.13411 14.3082 1.09229C14.2664 1.05047 14.2096 1.02698 14.1505 1.02698C14.0913 1.02698 14.0346 1.05047 13.9928 1.09229C13.951 1.13411 13.9275 1.19083 13.9275 1.24998V4.24948C13.9275 4.37248 14.027 4.47198 14.1505 4.47198V4.47198Z" fill="#007CC7"/>
<path d="M4.92099 9.98046C5.59974 9.98046 6.14999 9.43022 6.14999 8.75146C6.14999 8.0727 5.59974 7.52246 4.92099 7.52246C4.24223 7.52246 3.69199 8.0727 3.69199 8.75146C3.69199 9.43022 4.24223 9.98046 4.92099 9.98046Z" fill="#007CC7"/>
<path d="M8.453 9.98046C9.13176 9.98046 9.682 9.43022 9.682 8.75146C9.682 8.0727 9.13176 7.52246 8.453 7.52246C7.77424 7.52246 7.224 8.0727 7.224 8.75146C7.224 9.43022 7.77424 9.98046 8.453 9.98046Z" fill="#007CC7"/>
<path d="M11.9845 9.98046C12.6633 9.98046 13.2135 9.43022 13.2135 8.75146C13.2135 8.0727 12.6633 7.52246 11.9845 7.52246C11.3057 7.52246 10.7555 8.0727 10.7555 8.75146C10.7555 9.43022 11.3057 9.98046 11.9845 9.98046Z" fill="#007CC7"/>
<path d="M4.92099 13.4029C5.59974 13.4029 6.14999 12.8527 6.14999 12.1739C6.14999 11.4952 5.59974 10.9449 4.92099 10.9449C4.24223 10.9449 3.69199 11.4952 3.69199 12.1739C3.69199 12.8527 4.24223 13.4029 4.92099 13.4029Z" fill="#007CC7"/>
<path d="M8.453 13.4029C9.13176 13.4029 9.682 12.8527 9.682 12.1739C9.682 11.4952 9.13176 10.9449 8.453 10.9449C7.77424 10.9449 7.224 11.4952 7.224 12.1739C7.224 12.8527 7.77424 13.4029 8.453 13.4029Z" fill="#007CC7"/>
<path d="M11.9845 13.4029C12.6633 13.4029 13.2135 12.8527 13.2135 12.1739C13.2135 11.4952 12.6633 10.9449 11.9845 10.9449C11.3057 10.9449 10.7555 11.4952 10.7555 12.1739C10.7555 12.8527 11.3057 13.4029 11.9845 13.4029Z" fill="#007CC7"/>
<path d="M4.92099 16.8254C5.59974 16.8254 6.14999 16.2752 6.14999 15.5964C6.14999 14.9177 5.59974 14.3674 4.92099 14.3674C4.24223 14.3674 3.69199 14.9177 3.69199 15.5964C3.69199 16.2752 4.24223 16.8254 4.92099 16.8254Z" fill="#007CC7"/>
<path d="M8.453 16.8254C9.13176 16.8254 9.682 16.2752 9.682 15.5964C9.682 14.9177 9.13176 14.3674 8.453 14.3674C7.77424 14.3674 7.224 14.9177 7.224 15.5964C7.224 16.2752 7.77424 16.8254 8.453 16.8254Z" fill="#007CC7"/>
<path d="M11.9845 16.8254C12.6633 16.8254 13.2135 16.2752 13.2135 15.5964C13.2135 14.9177 12.6633 14.3674 11.9845 14.3674C11.3057 14.3674 10.7555 14.9177 10.7555 15.5964C10.7555 16.2752 11.3057 16.8254 11.9845 16.8254Z" fill="#007CC7"/>
<path d="M15.4335 9.98046C16.1123 9.98046 16.6625 9.43022 16.6625 8.75146C16.6625 8.0727 16.1123 7.52246 15.4335 7.52246C14.7547 7.52246 14.2045 8.0727 14.2045 8.75146C14.2045 9.43022 14.7547 9.98046 15.4335 9.98046Z" fill="#007CC7"/>
<path d="M15.4335 13.4029C16.1123 13.4029 16.6625 12.8527 16.6625 12.1739C16.6625 11.4952 16.1123 10.9449 15.4335 10.9449C14.7547 10.9449 14.2045 11.4952 14.2045 12.1739C14.2045 12.8527 14.7547 13.4029 15.4335 13.4029Z" fill="#007CC7"/>
<path d="M15.4335 16.8254C16.1123 16.8254 16.6625 16.2752 16.6625 15.5964C16.6625 14.9177 16.1123 14.3674 15.4335 14.3674C14.7547 14.3674 14.2045 14.9177 14.2045 15.5964C14.2045 16.2752 14.7547 16.8254 15.4335 16.8254Z" fill="#007CC7"/>
</svg>
