<svg width="19" height="18" viewBox="0 0 19 18" fill="none" xmlns="http://www.w3.org/2000/svg">
<path d="M13.5848 9.00005C13.5827 8.32773 13.5107 7.65745 13.3698 7.00005H15.1698C15.0771 6.72583 14.9652 6.4585 14.8348 6.20005H13.1598C12.8449 5.14808 12.3566 4.15609 11.7148 3.26505C11.3048 3.09265 10.8773 2.96524 10.4398 2.88505C11.319 3.82967 11.9826 4.95389 12.3848 6.18005H9.68982V2.80005H8.93982V6.18505H6.24482C6.64786 4.95667 7.31324 3.83065 8.19482 2.88505C7.75921 2.9639 7.3334 3.08963 6.92482 3.26005C6.28055 4.14736 5.7888 5.13593 5.46982 6.18505H3.78482C3.65211 6.44822 3.53848 6.72059 3.44482 7.00005H5.25982C5.11897 7.65745 5.04691 8.32773 5.04482 9.00005C5.04621 9.73544 5.13006 10.4684 5.29482 11.185H3.52482C3.62826 11.4653 3.75192 11.7377 3.89482 12H5.50982C5.81593 12.9579 6.26973 13.8622 6.85482 14.68C7.27381 14.8598 7.71151 14.9922 8.15982 15.075C7.34378 14.1849 6.7162 13.139 6.31482 12H8.94482V15.17H9.69482V12H12.3148C11.9121 13.1394 11.2828 14.1855 10.4648 15.075C10.9152 14.9894 11.3546 14.8535 11.7748 14.67C12.359 13.8552 12.8128 12.9545 13.1198 12H14.7198C14.8621 11.7425 14.9857 11.4752 15.0898 11.2H13.3148C13.4874 10.4792 13.578 9.74121 13.5848 9.00005ZM8.93982 11.185H6.06982C5.71781 9.80897 5.70237 8.36835 6.02482 6.98505H8.93982V11.185ZM12.5598 11.185H9.68982V7.00005H12.6048C12.7485 7.65692 12.8189 8.32767 12.8148 9.00005C12.8189 9.73604 12.7333 10.4698 12.5598 11.185Z" fill="white"/>
<path d="M9.31482 1C7.73257 1 6.18585 1.46919 4.87026 2.34824C3.55467 3.22729 2.52929 4.47672 1.92379 5.93853C1.31829 7.40034 1.15986 9.00887 1.46854 10.5607C1.77722 12.1126 2.53915 13.538 3.65797 14.6569C4.77679 15.7757 6.20225 16.5376 7.7541 16.8463C9.30595 17.155 10.9145 16.9965 12.3763 16.391C13.8381 15.7855 15.0875 14.7602 15.9666 13.4446C16.8456 12.129 17.3148 10.5823 17.3148 9C17.3148 6.87827 16.472 4.84344 14.9717 3.34315C13.4714 1.84285 11.4366 1 9.31482 1ZM9.31482 16C7.93035 16 6.57698 15.5895 5.42583 14.8203C4.27469 14.0511 3.37748 12.9579 2.84767 11.6788C2.31785 10.3997 2.17923 8.99224 2.44933 7.63437C2.71942 6.2765 3.38611 5.02922 4.36508 4.05025C5.34404 3.07128 6.59132 2.4046 7.94919 2.1345C9.30706 1.86441 10.7145 2.00303 11.9936 2.53284C13.2727 3.06266 14.3659 3.95986 15.1351 5.11101C15.9043 6.26215 16.3148 7.61553 16.3148 9C16.3148 10.8565 15.5773 12.637 14.2646 13.9497C12.9518 15.2625 11.1713 16 9.31482 16Z" fill="white"/>
</svg>
