<svg width="24" height="24" viewBox="0 0 24 24" fill="none" xmlns="http://www.w3.org/2000/svg">
<g clip-path="url(#clip0_308_301)">
<path d="M12.0057 6.60928C8.59853 6.60928 5.85032 9.01396 5.85032 11.9952C5.85032 14.9765 8.59853 17.3812 12.0057 17.3812C15.4128 17.3812 18.161 14.9765 18.161 11.9952C18.161 9.01396 15.4128 6.60928 12.0057 6.60928ZM12.0057 15.4968C9.80389 15.4968 8.00389 13.9265 8.00389 11.9952C8.00389 10.064 9.79853 8.49365 12.0057 8.49365C14.2128 8.49365 16.0075 10.064 16.0075 11.9952C16.0075 13.9265 14.2075 15.4968 12.0057 15.4968ZM19.8485 6.38896C19.8485 7.0874 19.2057 7.64522 18.4128 7.64522C17.6146 7.64522 16.9771 7.08271 16.9771 6.38896C16.9771 5.69521 17.62 5.13271 18.4128 5.13271C19.2057 5.13271 19.8485 5.69521 19.8485 6.38896ZM23.9253 7.66397C23.8342 5.98115 23.395 4.49053 21.986 3.2624C20.5825 2.03428 18.8789 1.6499 16.9557 1.56553C14.9735 1.46709 9.03246 1.46709 7.05032 1.56553C5.13246 1.64521 3.42889 2.02959 2.01997 3.25771C0.611039 4.48584 0.177111 5.97646 0.0806823 7.65928C-0.0318176 9.39365 -0.0318176 14.5921 0.0806823 16.3265C0.171754 18.0093 0.611039 19.4999 2.01997 20.728C3.42889 21.9562 5.12711 22.3405 7.05032 22.4249C9.03246 22.5233 14.9735 22.5233 16.9557 22.4249C18.8789 22.3452 20.5825 21.9608 21.986 20.728C23.3896 19.4999 23.8289 18.0093 23.9253 16.3265C24.0378 14.5921 24.0378 9.39834 23.9253 7.66397ZM21.3646 18.1874C20.9467 19.1062 20.1378 19.814 19.0825 20.1843C17.5021 20.7327 13.7521 20.6062 12.0057 20.6062C10.2592 20.6062 6.50389 20.728 4.92889 20.1843C3.87889 19.8187 3.06997 19.1108 2.64675 18.1874C2.01997 16.8046 2.16461 13.5233 2.16461 11.9952C2.16461 10.4671 2.02532 7.18115 2.64675 5.80303C3.06461 4.88428 3.87354 4.17646 4.92889 3.80615C6.50925 3.25771 10.2592 3.38428 12.0057 3.38428C13.7521 3.38428 17.5075 3.2624 19.0825 3.80615C20.1325 4.17178 20.9414 4.87959 21.3646 5.80303C21.9914 7.18584 21.8467 10.4671 21.8467 11.9952C21.8467 13.5233 21.9914 16.8093 21.3646 18.1874Z" fill="white"/>
</g>
<defs>
<clipPath id="clip0_308_301">
<rect width="24" height="24" fill="white"/>
</clipPath>
</defs>
</svg>
